<mxfile host="app.diagrams.net" modified="2021-05-16T09:11:39.406Z" agent="5.0 (Windows NT 10.0; WOW64) AppleWebKit/537.36 (KHTML, like Gecko) Chrome/80.0.3987.87 Safari/537.36 SE 2.X MetaSr 1.0" etag="u1PD9GmFh1yAxGKavyQ0" version="14.6.13" type="github">
  <diagram id="4iJ0f1cMk4c1h3tPNzgU" name="Page-1">
    <mxGraphModel dx="1422" dy="708" grid="1" gridSize="10" guides="1" tooltips="1" connect="1" arrows="1" fold="1" page="1" pageScale="1" pageWidth="1169" pageHeight="827" background="#114B5F" math="0" shadow="0">
      <root>
        <mxCell id="0" />
        <mxCell id="1" parent="0" />
        <mxCell id="2wATa-GsxQFZJ28xfsbL-2" value="钱包开户" style="shape=step;perimeter=stepPerimeter;whiteSpace=wrap;html=1;fixedSize=1;rounded=0;sketch=0;strokeColor=#028090;fillColor=#F45B69;fontColor=#E4FDE1;" parent="1" vertex="1">
          <mxGeometry x="105" y="170" width="120" height="80" as="geometry" />
        </mxCell>
        <mxCell id="2wATa-GsxQFZJ28xfsbL-8" value="&lt;span&gt;账户信息展示&lt;/span&gt;" style="shape=step;perimeter=stepPerimeter;whiteSpace=wrap;html=1;fixedSize=1;rounded=0;sketch=0;strokeColor=#028090;fillColor=#F45B69;fontColor=#E4FDE1;" parent="1" vertex="1">
          <mxGeometry x="225" y="170" width="120" height="80" as="geometry" />
        </mxCell>
        <mxCell id="lOPFTTWSg11TCO03ej4G-1" value="钱包余额管理" style="shape=step;perimeter=stepPerimeter;whiteSpace=wrap;html=1;fixedSize=1;rounded=0;sketch=0;strokeColor=#028090;fillColor=#F45B69;fontColor=#E4FDE1;" parent="1" vertex="1">
          <mxGeometry x="345" y="170" width="120" height="80" as="geometry" />
        </mxCell>
        <mxCell id="lOPFTTWSg11TCO03ej4G-2" value="目标信托相关" style="shape=step;perimeter=stepPerimeter;whiteSpace=wrap;html=1;fixedSize=1;rounded=0;sketch=0;strokeColor=#028090;fillColor=#F45B69;fontColor=#E4FDE1;" parent="1" vertex="1">
          <mxGeometry x="465" y="170" width="120" height="80" as="geometry" />
        </mxCell>
        <mxCell id="lOPFTTWSg11TCO03ej4G-3" value="资金运用" style="shape=step;perimeter=stepPerimeter;whiteSpace=wrap;html=1;fixedSize=1;rounded=0;sketch=0;strokeColor=#028090;fillColor=#F45B69;fontColor=#E4FDE1;" parent="1" vertex="1">
          <mxGeometry x="585" y="170" width="120" height="80" as="geometry" />
        </mxCell>
        <mxCell id="lOPFTTWSg11TCO03ej4G-6" value="账实核对" style="shape=step;perimeter=stepPerimeter;whiteSpace=wrap;html=1;fixedSize=1;rounded=0;sketch=0;strokeColor=#028090;fillColor=#F45B69;fontColor=#E4FDE1;" parent="1" vertex="1">
          <mxGeometry x="705" y="170" width="120" height="80" as="geometry" />
        </mxCell>
        <mxCell id="lOPFTTWSg11TCO03ej4G-8" value="头寸管理" style="shape=step;perimeter=stepPerimeter;whiteSpace=wrap;html=1;fixedSize=1;rounded=0;sketch=0;strokeColor=#028090;fillColor=#F45B69;fontColor=#E4FDE1;" parent="1" vertex="1">
          <mxGeometry x="825" y="170" width="120" height="80" as="geometry" />
        </mxCell>
        <mxCell id="lOPFTTWSg11TCO03ej4G-9" value="资金流水展示" style="rounded=1;whiteSpace=wrap;html=1;fillColor=#F45B69;strokeColor=#028090;fontColor=#E4FDE1;" parent="1" vertex="1">
          <mxGeometry x="225" y="360" width="100" height="60" as="geometry" />
        </mxCell>
        <mxCell id="lOPFTTWSg11TCO03ej4G-10" value="账户余额，收益展示" style="rounded=1;whiteSpace=wrap;html=1;fillColor=#F45B69;strokeColor=#028090;fontColor=#E4FDE1;" parent="1" vertex="1">
          <mxGeometry x="225" y="290" width="100" height="60" as="geometry" />
        </mxCell>
        <mxCell id="lOPFTTWSg11TCO03ej4G-11" value="身份证认证" style="rounded=1;whiteSpace=wrap;html=1;fillColor=#F45B69;strokeColor=#028090;fontColor=#E4FDE1;" parent="1" vertex="1">
          <mxGeometry x="105" y="360" width="100" height="60" as="geometry" />
        </mxCell>
        <mxCell id="lOPFTTWSg11TCO03ej4G-12" value="协议签署" style="rounded=1;whiteSpace=wrap;html=1;fillColor=#F45B69;strokeColor=#028090;fontColor=#E4FDE1;" parent="1" vertex="1">
          <mxGeometry x="105" y="430" width="100" height="60" as="geometry" />
        </mxCell>
        <mxCell id="lOPFTTWSg11TCO03ej4G-13" value="绑卡" style="rounded=1;whiteSpace=wrap;html=1;fillColor=#F45B69;strokeColor=#028090;fontColor=#E4FDE1;" parent="1" vertex="1">
          <mxGeometry x="105" y="290" width="100" height="60" as="geometry" />
        </mxCell>
        <mxCell id="lOPFTTWSg11TCO03ej4G-17" value="提现" style="rounded=1;whiteSpace=wrap;html=1;fillColor=#F45B69;strokeColor=#028090;fontColor=#E4FDE1;" parent="1" vertex="1">
          <mxGeometry x="345" y="360" width="100" height="60" as="geometry" />
        </mxCell>
        <mxCell id="lOPFTTWSg11TCO03ej4G-18" value="充值" style="rounded=1;whiteSpace=wrap;html=1;fillColor=#F45B69;strokeColor=#028090;fontColor=#E4FDE1;" parent="1" vertex="1">
          <mxGeometry x="345" y="290" width="100" height="60" as="geometry" />
        </mxCell>
        <mxCell id="lOPFTTWSg11TCO03ej4G-19" value="目标信托购买" style="rounded=1;whiteSpace=wrap;html=1;fillColor=#F45B69;strokeColor=#028090;fontColor=#E4FDE1;" parent="1" vertex="1">
          <mxGeometry x="465" y="290" width="100" height="60" as="geometry" />
        </mxCell>
        <mxCell id="lOPFTTWSg11TCO03ej4G-20" value="目标信托成立缴款" style="rounded=1;whiteSpace=wrap;html=1;fillColor=#F45B69;strokeColor=#028090;fontColor=#E4FDE1;" parent="1" vertex="1">
          <mxGeometry x="465" y="360" width="100" height="60" as="geometry" />
        </mxCell>
        <mxCell id="lOPFTTWSg11TCO03ej4G-21" value="资金运用申购" style="rounded=1;whiteSpace=wrap;html=1;fillColor=#F45B69;strokeColor=#028090;fontColor=#E4FDE1;" parent="1" vertex="1">
          <mxGeometry x="585" y="290" width="100" height="60" as="geometry" />
        </mxCell>
        <mxCell id="lOPFTTWSg11TCO03ej4G-22" value="资金运用赎回" style="rounded=1;whiteSpace=wrap;html=1;fillColor=#F45B69;strokeColor=#028090;fontColor=#E4FDE1;" parent="1" vertex="1">
          <mxGeometry x="585" y="360" width="100" height="60" as="geometry" />
        </mxCell>
        <mxCell id="UAPWTyVuzqUKzdaB-cMG-1" value="自动化结息" style="rounded=1;whiteSpace=wrap;html=1;fillColor=#F45B69;strokeColor=#028090;fontColor=#E4FDE1;" vertex="1" parent="1">
          <mxGeometry x="585" y="430" width="100" height="60" as="geometry" />
        </mxCell>
        <mxCell id="UAPWTyVuzqUKzdaB-cMG-3" value="资金变化展示" style="rounded=1;whiteSpace=wrap;html=1;fillColor=#F45B69;strokeColor=#028090;fontColor=#E4FDE1;" vertex="1" parent="1">
          <mxGeometry x="825" y="290" width="100" height="60" as="geometry" />
        </mxCell>
        <mxCell id="UAPWTyVuzqUKzdaB-cMG-4" value="可变现资产展示" style="rounded=1;whiteSpace=wrap;html=1;fillColor=#F45B69;strokeColor=#028090;fontColor=#E4FDE1;" vertex="1" parent="1">
          <mxGeometry x="825" y="360" width="100" height="60" as="geometry" />
        </mxCell>
        <mxCell id="UAPWTyVuzqUKzdaB-cMG-5" value="近期外付款计划展示" style="rounded=1;whiteSpace=wrap;html=1;fillColor=#F45B69;strokeColor=#028090;fontColor=#E4FDE1;" vertex="1" parent="1">
          <mxGeometry x="825" y="430" width="100" height="60" as="geometry" />
        </mxCell>
        <mxCell id="UAPWTyVuzqUKzdaB-cMG-6" value="头寸预警" style="rounded=1;whiteSpace=wrap;html=1;fillColor=#F45B69;strokeColor=#028090;fontColor=#E4FDE1;" vertex="1" parent="1">
          <mxGeometry x="825" y="500" width="100" height="60" as="geometry" />
        </mxCell>
        <mxCell id="UAPWTyVuzqUKzdaB-cMG-7" value="自动化对账" style="rounded=1;whiteSpace=wrap;html=1;fillColor=#F45B69;strokeColor=#028090;fontColor=#E4FDE1;" vertex="1" parent="1">
          <mxGeometry x="705" y="360" width="100" height="60" as="geometry" />
        </mxCell>
        <mxCell id="UAPWTyVuzqUKzdaB-cMG-8" value="对账结果预警" style="rounded=1;whiteSpace=wrap;html=1;fillColor=#F45B69;strokeColor=#028090;fontColor=#E4FDE1;" vertex="1" parent="1">
          <mxGeometry x="705" y="430" width="100" height="60" as="geometry" />
        </mxCell>
        <mxCell id="UAPWTyVuzqUKzdaB-cMG-9" value="财务记账" style="rounded=1;whiteSpace=wrap;html=1;fillColor=#F45B69;strokeColor=#028090;fontColor=#E4FDE1;" vertex="1" parent="1">
          <mxGeometry x="705" y="290" width="100" height="60" as="geometry" />
        </mxCell>
        <mxCell id="UAPWTyVuzqUKzdaB-cMG-10" value="调账" style="shape=step;perimeter=stepPerimeter;whiteSpace=wrap;html=1;fixedSize=1;rounded=0;sketch=0;strokeColor=#028090;fillColor=#F45B69;fontColor=#E4FDE1;" vertex="1" parent="1">
          <mxGeometry x="945" y="170" width="120" height="80" as="geometry" />
        </mxCell>
        <mxCell id="UAPWTyVuzqUKzdaB-cMG-11" value="人工登记份额" style="rounded=1;whiteSpace=wrap;html=1;fillColor=#F45B69;strokeColor=#028090;fontColor=#E4FDE1;" vertex="1" parent="1">
          <mxGeometry x="945" y="290" width="100" height="60" as="geometry" />
        </mxCell>
        <mxCell id="UAPWTyVuzqUKzdaB-cMG-12" value="人工退款" style="rounded=1;whiteSpace=wrap;html=1;fillColor=#F45B69;strokeColor=#028090;fontColor=#E4FDE1;" vertex="1" parent="1">
          <mxGeometry x="945" y="360" width="100" height="60" as="geometry" />
        </mxCell>
        <mxCell id="UAPWTyVuzqUKzdaB-cMG-13" value="人工调账" style="rounded=1;whiteSpace=wrap;html=1;fillColor=#F45B69;strokeColor=#028090;fontColor=#E4FDE1;" vertex="1" parent="1">
          <mxGeometry x="945" y="430" width="100" height="60" as="geometry" />
        </mxCell>
        <mxCell id="UAPWTyVuzqUKzdaB-cMG-15" value="目标信托分配" style="rounded=1;whiteSpace=wrap;html=1;fillColor=#F45B69;strokeColor=#028090;fontColor=#E4FDE1;" vertex="1" parent="1">
          <mxGeometry x="465" y="430" width="100" height="60" as="geometry" />
        </mxCell>
        <mxCell id="UAPWTyVuzqUKzdaB-cMG-18" value="&lt;font style=&quot;font-size: 30px&quot;&gt;钱包系统业务架构&lt;/font&gt;" style="text;html=1;align=center;verticalAlign=middle;resizable=0;points=[];autosize=1;strokeColor=none;fontColor=#E4FDE1;" vertex="1" parent="1">
          <mxGeometry x="395" y="50" width="260" height="30" as="geometry" />
        </mxCell>
      </root>
    </mxGraphModel>
  </diagram>
</mxfile>
